<?xml version="1.0" encoding="UTF-8"?>
<svg width="1920" height="1080" viewBox="0 0 1920 1080" xmlns="http://www.w3.org/2000/svg">
  <!-- Background -->
  <rect width="1920" height="1080" fill="#1a202c"/>
  
  <!-- Heart pattern background -->
  <g opacity="0.1" fill="#ff6b6b">
    <!-- Row 1 -->
    <path d="M100,100 C150,50 200,50 250,100 C300,50 350,50 400,100 C400,150 350,200 250,250 C150,200 100,150 100,100 Z" />
    <path d="M500,100 C550,50 600,50 650,100 C700,50 750,50 800,100 C800,150 750,200 650,250 C550,200 500,150 500,100 Z" />
    <path d="M900,100 C950,50 1000,50 1050,100 C1100,50 1150,50 1200,100 C1200,150 1150,200 1050,250 C950,200 900,150 900,100 Z" />
    <path d="M1300,100 C1350,50 1400,50 1450,100 C1500,50 1550,50 1600,100 C1600,150 1550,200 1450,250 C1350,200 1300,150 1300,100 Z" />
    <path d="M1700,100 C1750,50 1800,50 1850,100 C1900,50 1950,50 2000,100 C2000,150 1950,200 1850,250 C1750,200 1700,150 1700,100 Z" />
    
    <!-- Row 2 -->
    <path d="M100,300 C150,250 200,250 250,300 C300,250 350,250 400,300 C400,350 350,400 250,450 C150,400 100,350 100,300 Z" />
    <path d="M500,300 C550,250 600,250 650,300 C700,250 750,250 800,300 C800,350 750,400 650,450 C550,400 500,350 500,300 Z" />
    <path d="M900,300 C950,250 1000,250 1050,300 C1100,250 1150,250 1200,300 C1200,350 1150,400 1050,450 C950,400 900,350 900,300 Z" />
    <path d="M1300,300 C1350,250 1400,250 1450,300 C1500,250 1550,250 1600,300 C1600,350 1550,400 1450,450 C1350,400 1300,350 1300,300 Z" />
    <path d="M1700,300 C1750,250 1800,250 1850,300 C1900,250 1950,250 2000,300 C2000,350 1950,400 1850,450 C1750,400 1700,350 1700,300 Z" />
    
    <!-- Row 3 -->
    <path d="M100,500 C150,450 200,450 250,500 C300,450 350,450 400,500 C400,550 350,600 250,650 C150,600 100,550 100,500 Z" />
    <path d="M500,500 C550,450 600,450 650,500 C700,450 750,450 800,500 C800,550 750,600 650,650 C550,600 500,550 500,500 Z" />
    <path d="M900,500 C950,450 1000,450 1050,500 C1100,450 1150,450 1200,500 C1200,550 1150,600 1050,650 C950,600 900,550 900,500 Z" />
    <path d="M1300,500 C1350,450 1400,450 1450,500 C1500,450 1550,450 1600,500 C1600,550 1550,600 1450,650 C1350,600 1300,550 1300,500 Z" />
    <path d="M1700,500 C1750,450 1800,450 1850,500 C1900,450 1950,450 2000,500 C2000,550 1950,600 1850,650 C1750,600 1700,550 1700,500 Z" />
    
    <!-- Row 4 -->
    <path d="M100,700 C150,650 200,650 250,700 C300,650 350,650 400,700 C400,750 350,800 250,850 C150,800 100,750 100,700 Z" />
    <path d="M500,700 C550,650 600,650 650,700 C700,650 750,650 800,700 C800,750 750,800 650,850 C550,800 500,750 500,700 Z" />
    <path d="M900,700 C950,650 1000,650 1050,700 C1100,650 1150,650 1200,700 C1200,750 1150,800 1050,850 C950,800 900,750 900,700 Z" />
    <path d="M1300,700 C1350,650 1400,650 1450,700 C1500,650 1550,650 1600,700 C1600,750 1550,800 1450,850 C1350,800 1300,750 1300,700 Z" />
    <path d="M1700,700 C1750,650 1800,650 1850,700 C1900,650 1950,650 2000,700 C2000,750 1950,800 1850,850 C1750,800 1700,750 1700,700 Z" />
    
    <!-- Row 5 -->
    <path d="M100,900 C150,850 200,850 250,900 C300,850 350,850 400,900 C400,950 350,1000 250,1050 C150,1000 100,950 100,900 Z" />
    <path d="M500,900 C550,850 600,850 650,900 C700,850 750,850 800,900 C800,950 750,1000 650,1050 C550,1000 500,950 500,900 Z" />
    <path d="M900,900 C950,850 1000,850 1050,900 C1100,850 1150,850 1200,900 C1200,950 1150,1000 1050,1050 C950,1000 900,950 900,900 Z" />
    <path d="M1300,900 C1350,850 1400,850 1450,900 C1500,850 1550,850 1600,900 C1600,950 1550,1000 1450,1050 C1350,1000 1300,950 1300,900 Z" />
    <path d="M1700,900 C1750,850 1800,850 1850,900 C1900,850 1950,850 2000,900 C2000,950 1950,1000 1850,1050 C1750,1000 1700,950 1700,900 Z" />
  </g>
  
  <!-- Large central heart -->
  <g transform="translate(960, 540) scale(1.5)">
    <path d="M0,200 C-100,100 -200,0 -100,-100 C-50,-150 0,-100 0,-50 C0,-100 50,-150 100,-100 C200,0 100,100 0,200 Z" 
          fill="#ff6b6b" opacity="0.3" />
    
    <!-- Heartbeat line -->
    <path d="M-200,0 L-150,0 L-100,-50 L-50,50 L0,0 L50,50 L100,-50 L150,0 L200,0" 
          fill="none" stroke="#ff6b6b" stroke-width="5" opacity="0.6" />
  </g>
  
  <!-- Particles -->
  <g fill="#ff6b6b" opacity="0.4">
    <circle cx="200" cy="200" r="5" />
    <circle cx="400" cy="300" r="3" />
    <circle cx="600" cy="150" r="4" />
    <circle cx="800" cy="400" r="6" />
    <circle cx="1000" cy="200" r="5" />
    <circle cx="1200" cy="350" r="4" />
    <circle cx="1400" cy="250" r="3" />
    <circle cx="1600" cy="450" r="5" />
    <circle cx="1800" cy="150" r="4" />
    <circle cx="300" cy="500" r="3" />
    <circle cx="500" cy="600" r="5" />
    <circle cx="700" cy="550" r="4" />
    <circle cx="900" cy="650" r="3" />
    <circle cx="1100" cy="500" r="6" />
    <circle cx="1300" cy="600" r="4" />
    <circle cx="1500" cy="550" r="5" />
    <circle cx="1700" cy="650" r="3" />
    <circle cx="250" cy="750" r="4" />
    <circle cx="450" cy="800" r="5" />
    <circle cx="650" cy="700" r="3" />
    <circle cx="850" cy="850" r="6" />
    <circle cx="1050" cy="750" r="4" />
    <circle cx="1250" cy="800" r="5" />
    <circle cx="1450" cy="700" r="3" />
    <circle cx="1650" cy="850" r="4" />
    <circle cx="1850" cy="750" r="5" />
  </g>
</svg> 