<?xml version="1.0" encoding="UTF-8"?>
<svg width="400" height="400" viewBox="0 0 400 400" xmlns="http://www.w3.org/2000/svg">
  <!-- Background -->
  <rect width="400" height="400" fill="white"/>
  
  <!-- Heart outline (faded) -->
  <path d="M200,325 C275,275 350,200 350,125 C350,75 310,50 275,50 C240,50 215,75 200,100 C185,75 160,50 125,50 C90,50 50,75 50,125 C50,200 125,275 200,325 Z" 
        fill="#f8d0d0" stroke="#cc0000" stroke-width="1" opacity="0.3"/>
  
  <!-- Aorta (highlighted) -->
  <path d="M275,90 C300,90 325,75 325,50 C325,40 315,30 300,30 C285,30 275,40 275,50 L275,90 Z" 
        fill="#ff9999" stroke="#cc0000" stroke-width="3"/>
  <path d="M275,90 C300,90 325,100 340,120 C355,140 350,160 330,170" 
        fill="none" stroke="#cc0000" stroke-width="3"/>
  <text x="300" y="60" font-family="Arial" font-size="20" fill="#990000">Aorta</text>
  
  <!-- Title -->
  <text x="200" y="370" font-family="Arial" font-size="24" font-weight="bold" fill="#990000" text-anchor="middle">Aorta</text>
</svg> 