<?xml version="1.0" encoding="UTF-8"?>
<svg width="400" height="400" viewBox="0 0 400 400" xmlns="http://www.w3.org/2000/svg">
  <!-- Background -->
  <rect width="400" height="400" fill="white"/>
  
  <!-- Heart outline (faded) -->
  <path d="M200,325 C275,275 350,200 350,125 C350,75 310,50 275,50 C240,50 215,75 200,100 C185,75 160,50 125,50 C90,50 50,75 50,125 C50,200 125,275 200,325 Z" 
        fill="#f8d0d0" stroke="#cc0000" stroke-width="1" opacity="0.3"/>
  
  <!-- Left Ventricle (highlighted) -->
  <path d="M275,190 C300,190 325,210 325,250 C325,290 275,310 240,310 L240,190 L275,190 Z" 
        fill="#e06666" stroke="#cc0000" stroke-width="3"/>
  <text x="260" y="250" font-family="Arial" font-size="24" fill="#990000">LV</text>
  
  <!-- Title -->
  <text x="200" y="370" font-family="Arial" font-size="24" font-weight="bold" fill="#990000" text-anchor="middle">Left Ventricle</text>
</svg> 