<?xml version="1.0" encoding="UTF-8"?>
<svg width="400" height="400" viewBox="0 0 400 400" xmlns="http://www.w3.org/2000/svg">
  <!-- Background -->
  <rect width="400" height="400" fill="white"/>
  
  <!-- Heart outline (faded) -->
  <path d="M200,325 C275,275 350,200 350,125 C350,75 310,50 275,50 C240,50 215,75 200,100 C185,75 160,50 125,50 C90,50 50,75 50,125 C50,200 125,275 200,325 Z" 
        fill="#f8d0d0" stroke="#cc0000" stroke-width="1" opacity="0.3"/>
  
  <!-- Pulmonary Artery (highlighted) -->
  <path d="M125,90 C100,90 75,75 75,50 C75,40 85,30 100,30 C115,30 125,40 125,50 L125,90 Z" 
        fill="#ff9999" stroke="#cc0000" stroke-width="3"/>
  <path d="M125,90 C100,90 75,100 60,120 C45,140 50,160 70,170" 
        fill="none" stroke="#cc0000" stroke-width="3"/>
  <text x="75" y="60" font-family="Arial" font-size="14" fill="#990000">Pulmonary</text>
  <text x="75" y="75" font-family="Arial" font-size="14" fill="#990000">Artery</text>
  
  <!-- Title -->
  <text x="200" y="370" font-family="Arial" font-size="24" font-weight="bold" fill="#990000" text-anchor="middle">Pulmonary Artery</text>
</svg> 