<?xml version="1.0" encoding="UTF-8"?>
<svg width="400" height="400" viewBox="0 0 400 400" xmlns="http://www.w3.org/2000/svg">
  <!-- Background -->
  <rect width="400" height="400" fill="white"/>
  
  <!-- Heart outline (faded) -->
  <path d="M200,325 C275,275 350,200 350,125 C350,75 310,50 275,50 C240,50 215,75 200,100 C185,75 160,50 125,50 C90,50 50,75 50,125 C50,200 125,275 200,325 Z" 
        fill="#f8d0d0" stroke="#cc0000" stroke-width="1" opacity="0.3"/>
  
  <!-- Right Atrium (highlighted) -->
  <path d="M125,100 C100,100 75,115 75,150 C75,175 100,190 125,190 L160,190 L160,100 L125,100 Z" 
        fill="#f2a5a5" stroke="#cc0000" stroke-width="3"/>
  <text x="130" y="145" font-family="Arial" font-size="24" fill="#990000">RA</text>
  
  <!-- Title -->
  <text x="200" y="370" font-family="Arial" font-size="24" font-weight="bold" fill="#990000" text-anchor="middle">Right Atrium</text>
</svg> 