<svg xmlns="http://www.w3.org/2000/svg" viewBox="0 0 100 100" width="100%" height="100%">
  <!-- Background -->
  <circle cx="50" cy="50" r="50" fill="#B7336B" />
  
  <!-- Shirt/Collar -->
  <path d="M50 85 L30 70 L35 60 L50 65 L65 60 L70 70 Z" fill="#91285B" />
  
  <!-- Face -->
  <circle cx="50" cy="42" r="25" fill="#F5E1C9" />
  
  <!-- Hair -->
  <path d="M25 45 Q28 30 35 26 L50 20 L65 26 Q72 30 75 45 L70 48 Q70 35 65 33 L50 28 L35 33 Q30 35 30 48 Z" 
        fill="#885342" />
  <path d="M30 48 Q30 60 35 65 L38 66 L35 80 L45 68 L55 68 L65 80 L62 66 L65 65 Q70 60 70 48 Z" 
        fill="#885342" />
  
  <!-- Eyes -->
  <ellipse cx="40" cy="42" rx="3" ry="4" fill="#2D3748" />
  <ellipse cx="60" cy="42" rx="3" ry="4" fill="#2D3748" />
  
  <!-- Lips -->
  <path d="M45 52 Q50 55 55 52" stroke="#AD436D" stroke-width="1.5" fill="none" />
</svg> 