<svg xmlns="http://www.w3.org/2000/svg" viewBox="0 0 100 100" width="100%" height="100%">
  <!-- Background -->
  <circle cx="50" cy="50" r="50" fill="#4A5568" />
  
  <!-- Shirt/Collar -->
  <path d="M50 85 L30 70 L35 60 L50 65 L65 60 L70 70 Z" fill="#2D3748" />
  
  <!-- Face -->
  <circle cx="50" cy="42" r="25" fill="#F0E0D0" />
  
  <!-- Hair -->
  <path d="M50 17 Q40 20 35 30 Q30 25 30 33 Q25 30 25 35 Q27 40 25 45 
           L30 50 L35 42 L45 37 L50 37 L55 37 L70 45 L75 40 L70 30 L65 20 Z" 
        fill="#7C4626" />
  
  <!-- Eyes -->
  <ellipse cx="40" cy="42" rx="3" ry="4" fill="#2D3748" />
  <ellipse cx="60" cy="42" rx="3" ry="4" fill="#2D3748" />
</svg> 